<?xml version="1.0" encoding="UTF-8"?>
<svg width="500" height="500" viewBox="0 0 500 500" xmlns="http://www.w3.org/2000/svg">
<rect width="500" height="500" fill="#F8F4EC"/>
<g transform="translate(250,195)">
  <polygon points="0,-82 14.3,-29.8 64.1,-51.2 32.2,-7.3 79.9,18.3 25.8,20.6 35.5,74 0,33 -35.5,74 -25.8,20.6 -79.9,18.3 -32.2,-7.3 -64.1,-51.2 -14.3,-29.8" fill="#EDE8DE"/>
  <g transform="rotate(40) scale(0.68)">
    <polygon points="0,-82 14.3,-29.8 64.1,-51.2 32.2,-7.3 79.9,18.3 25.8,20.6 35.5,74 0,33 -35.5,74 -25.8,20.6 -79.9,18.3 -32.2,-7.3 -64.1,-51.2 -14.3,-29.8" fill="none" stroke="#8B6914" stroke-width="0.9" opacity="0.35"/>
  </g>
  <g transform="rotate(18) scale(0.88)">
    <polygon points="0,-82 14.3,-29.8 64.1,-51.2 32.2,-7.3 79.9,18.3 25.8,20.6 35.5,74 0,33 -35.5,74 -25.8,20.6 -79.9,18.3 -32.2,-7.3 -64.1,-51.2 -14.3,-29.8" fill="none" stroke="#8B6914" stroke-width="1.1" opacity="0.6"/>
  </g>
  <polygon points="0,-82 14.3,-29.8 64.1,-51.2 32.2,-7.3 79.9,18.3 25.8,20.6 35.5,74 0,33 -35.5,74 -25.8,20.6 -79.9,18.3 -32.2,-7.3 -64.1,-51.2 -14.3,-29.8" fill="none" stroke="#8B6914" stroke-width="1.7"/>
  <circle cx="0" cy="-82" r="2.5" fill="#8B6914"/>
  <circle cx="64.1" cy="-51.2" r="2.5" fill="#8B6914"/>
  <circle cx="79.9" cy="18.3" r="2.5" fill="#8B6914"/>
  <circle cx="35.5" cy="74" r="2.5" fill="#8B6914"/>
  <circle cx="-35.5" cy="74" r="2.5" fill="#8B6914"/>
  <circle cx="-79.9" cy="18.3" r="2.5" fill="#8B6914"/>
  <circle cx="-64.1" cy="-51.2" r="2.5" fill="#8B6914"/>
  <polygon points="0,0 -2.5,-3 -9,-9 -3,-2.5" fill="#8B6914" opacity="0.9"/>
  <polygon points="0,0 2.5,-3 9,-9 3,-2.5" fill="#8B6914" opacity="0.9"/>
  <polygon points="0,0 2.5,3 9,9 3,2.5" fill="#8B6914" opacity="0.9"/>
  <polygon points="0,0 -2.5,3 -9,9 -3,2.5" fill="#8B6914" opacity="0.9"/>
  <line x1="-2" y1="-5.5" x2="-2" y2="5.5" stroke="#8B6914" stroke-width="1.05" stroke-linecap="round"/>
  <line x1="-3.5" y1="-5.5" x2="-0.5" y2="-5.5" stroke="#8B6914" stroke-width="0.7" stroke-linecap="round"/>
  <line x1="-3.5" y1="5.5" x2="-0.5" y2="5.5" stroke="#8B6914" stroke-width="0.7" stroke-linecap="round"/>
  <path d="M -2,-5.5 Q 6.5,-5.5 6.5,-2.5 Q 6.5,0.5 -2,0.5" fill="none" stroke="#8B6914" stroke-width="1.05" stroke-linecap="round"/>
</g>
<line x1="110" y1="318" x2="208" y2="318" stroke="#8B6914" stroke-width="0.5" opacity="0.4"/>
<polygon points="250,312 255,318 250,324 245,318" fill="#8B6914" opacity="0.7"/>
<line x1="292" y1="318" x2="390" y2="318" stroke="#8B6914" stroke-width="0.5" opacity="0.4"/>
<text x="250" y="368" text-anchor="middle" font-family="Georgia, serif" font-size="40" font-weight="400" fill="#1a1a1a" letter-spacing="14">XTELLAR</text>
<text x="250" y="402" text-anchor="middle" font-family="Georgia, serif" font-size="18" font-weight="300" fill="#8B6914" letter-spacing="20">PRIVÉ</text>
<line x1="155" y1="420" x2="345" y2="420" stroke="#c8b890" stroke-width="0.6"/>
<text x="250" y="465" text-anchor="middle" font-family="Georgia, serif" font-size="8" fill="#8B6914" letter-spacing="4">UEN 202303777R · SINGAPORE</text>
</svg>